<?xml version="1.0" standalone="no"?>
<!DOCTYPE svg PUBLIC "-//W3C//DTD SVG 20010904//EN"
 "http://www.w3.org/TR/2001/REC-SVG-20010904/DTD/svg10.dtd">
<svg version="1.0" xmlns="http://www.w3.org/2000/svg"
 width="500.000000pt" height="500.000000pt" viewBox="0 0 500.000000 500.000000"
 preserveAspectRatio="xMidYMid meet">

<g transform="translate(0.000000,500.000000) scale(0.100000,-0.100000)"
fill="#000000" stroke="none">
<path d="M405 2513 c-3 -38 -10 -78 -15 -90 -8 -19 -6 -23 8 -23 12 0 18 8 18
23 0 12 1 40 3 62 l2 40 31 -65 30 -65 34 70 34 70 2 -55 c0 -30 1 -61 1 -67
-1 -7 11 -13 26 -13 15 0 21 3 14 8 -6 4 -15 36 -19 72 -12 108 -16 111 -53
28 l-33 -73 -34 73 c-18 39 -35 72 -38 72 -2 0 -7 -30 -11 -67z"/>
<path d="M715 2552 l-40 -3 3 -66 c3 -47 0 -68 -10 -74 -8 -5 9 -9 43 -9 42 0
58 4 63 15 4 13 2 13 -14 5 -10 -5 -28 -10 -39 -10 -17 0 -21 6 -21 31 0 28 3
31 25 27 16 -3 25 -1 25 7 0 8 -9 10 -25 7 -22 -4 -25 -1 -25 28 0 31 1 32 35
28 19 -2 35 -1 35 3 0 12 -12 14 -55 11z"/>
<path d="M883 2550 c-39 -16 -56 -77 -33 -120 21 -38 94 -45 133 -12 21 18 23
52 2 52 -9 0 -12 -6 -9 -15 17 -44 -72 -64 -100 -23 -33 47 -7 108 46 108 17
0 40 -7 50 -17 10 -9 18 -11 18 -6 0 28 -68 50 -107 33z"/>
<path d="M1408 2549 c-28 -16 -21 -45 18 -78 24 -19 35 -35 31 -45 -8 -21 -44
-20 -56 2 -9 15 -10 15 -11 -4 0 -28 37 -38 67 -18 33 21 28 47 -12 78 -45 34
-47 60 -5 54 19 -3 29 -1 27 6 -5 15 -38 18 -59 5z"/>
<path d="M1603 2553 l-41 -4 -4 -75 -3 -74 53 0 c42 0 52 3 52 17 0 13 -3 14
-12 5 -7 -7 -22 -12 -35 -12 -19 0 -23 5 -23 31 0 28 3 31 25 27 16 -3 25 -1
25 7 0 8 -9 10 -25 7 -22 -4 -25 -1 -25 28 0 30 2 32 30 28 20 -3 30 0 30 9 0
7 -1 12 -2 11 -2 -1 -22 -3 -45 -5z"/>
<path d="M1990 2551 l-45 -6 0 -73 c0 -66 2 -72 20 -72 18 0 20 5 17 36 -4 35
-3 37 22 32 17 -3 26 -1 26 7 0 8 -9 10 -25 7 -22 -4 -25 -1 -25 28 0 30 2 32
30 28 20 -3 30 0 30 9 0 7 -1 12 -2 11 -2 0 -23 -4 -48 -7z"/>
<path d="M2164 2550 c-12 -5 -29 -19 -38 -32 -46 -65 22 -144 101 -117 36 12
53 34 53 73 0 38 -10 55 -41 71 -31 17 -44 18 -75 5z m78 -27 c22 -20 23 -70
1 -95 -19 -21 -62 -24 -88 -4 -22 16 -26 76 -6 100 17 21 69 20 93 -1z"/>
<path d="M2401 2549 c-84 -34 -57 -153 34 -153 46 0 85 36 85 79 0 55 -66 96
-119 74z m83 -31 c34 -49 7 -108 -49 -108 -24 0 -39 7 -49 22 -34 49 -7 108
49 108 24 0 39 -7 49 -22z"/>
<path d="M3581 2549 c-84 -34 -57 -153 34 -153 46 0 85 36 85 79 0 55 -66 96
-119 74z m83 -31 c34 -49 7 -108 -49 -108 -24 0 -39 7 -49 22 -34 49 -7 108
49 108 24 0 39 -7 49 -22z"/>
<path d="M4063 2553 l-41 -4 -4 -75 -3 -74 53 0 c42 0 52 3 52 17 0 13 -3 14
-12 5 -7 -7 -22 -12 -35 -12 -19 0 -23 5 -23 31 0 28 3 31 25 27 16 -3 25 -1
25 7 0 8 -9 10 -25 7 -22 -4 -25 -1 -25 28 0 30 2 32 30 28 20 -3 30 0 30 9 0
7 -1 12 -2 11 -2 -1 -22 -3 -45 -5z"/>
<path d="M4208 2549 c-28 -16 -21 -45 18 -78 24 -19 35 -35 31 -45 -8 -21 -44
-20 -56 2 -9 15 -10 15 -11 -4 0 -28 37 -38 67 -18 33 21 28 47 -12 78 -45 34
-47 60 -5 54 19 -3 29 -1 27 6 -5 15 -38 18 -59 5z"/>
<path d="M1099 2474 c-30 -63 -33 -74 -18 -74 11 0 19 9 21 23 2 17 11 23 35
25 28 3 33 -1 39 -22 4 -16 13 -26 23 -26 15 0 13 11 -18 75 -19 41 -37 75
-40 74 -3 0 -22 -34 -42 -75z m51 27 c0 -5 3 -16 6 -25 4 -12 0 -16 -15 -16
-22 0 -25 8 -15 34 7 17 24 22 24 7z"/>
<path d="M1759 2475 c-31 -66 -33 -75 -17 -75 10 0 17 3 17 8 -5 32 3 42 35
42 33 0 53 -20 40 -41 -3 -5 5 -9 18 -9 l24 0 -36 75 c-19 41 -37 75 -40 75
-3 0 -22 -34 -41 -75z m61 -7 c0 -5 -11 -8 -24 -8 -23 0 -24 2 -13 30 l11 30
13 -23 c7 -12 12 -25 13 -29z"/>
<path d="M2595 2475 l0 -75 56 0 c73 0 103 22 103 75 0 53 -30 75 -103 75
l-56 0 0 -75z m119 49 c21 -20 20 -73 -1 -96 -9 -10 -30 -18 -50 -18 l-33 0 0
65 0 65 34 0 c19 0 42 -7 50 -16z"/>
<path d="M2948 2484 c3 -48 0 -69 -10 -75 -9 -6 -6 -9 12 -9 24 0 25 2 25 75
0 60 -3 75 -15 75 -12 0 -14 -12 -12 -66z"/>
<path d="M3068 2475 c-2 -62 0 -75 12 -75 12 0 14 12 12 57 l-4 58 59 -57 c32
-32 61 -58 65 -58 4 0 8 34 10 75 2 62 0 75 -12 75 -12 0 -14 -12 -12 -57 l4
-58 -59 58 c-32 31 -61 57 -65 57 -4 0 -8 -34 -10 -75z"/>
<path d="M3305 2475 l0 -75 58 0 c69 0 97 21 97 75 0 54 -28 75 -97 75 l-58 0
0 -75z m117 48 c22 -20 23 -61 2 -91 -11 -16 -25 -22 -55 -22 l-39 0 0 65 0
65 37 0 c20 0 45 -7 55 -17z"/>
<path d="M3778 2475 c-2 -62 0 -75 12 -75 12 0 14 12 12 57 l-4 58 59 -57 c32
-32 61 -58 65 -58 4 0 8 34 10 75 2 62 0 75 -12 75 -12 0 -14 -12 -12 -57 l4
-58 -59 58 c-32 31 -61 57 -65 57 -4 0 -8 -34 -10 -75z"/>
<path d="M4368 2484 c3 -48 0 -69 -10 -75 -9 -6 -6 -9 12 -9 24 0 25 2 25 75
0 60 -3 75 -15 75 -12 0 -14 -12 -12 -66z"/>
<path d="M4514 2488 c-16 -34 -35 -67 -42 -75 -11 -11 -9 -13 13 -13 14 0 24
4 21 9 -13 21 7 41 40 41 32 0 40 -10 35 -42 0 -5 11 -8 27 -8 15 0 22 4 16 8
-7 4 -25 37 -42 75 -17 37 -32 67 -35 67 -2 0 -17 -28 -33 -62z m45 2 c9 -28
8 -30 -14 -30 -22 0 -23 2 -14 30 6 17 12 30 14 30 2 0 8 -13 14 -30z"/>
</g>
</svg>
