<?xml version="1.0" standalone="no"?>
<!DOCTYPE svg PUBLIC "-//W3C//DTD SVG 20010904//EN"
 "http://www.w3.org/TR/2001/REC-SVG-20010904/DTD/svg10.dtd">
<svg version="1.0" xmlns="http://www.w3.org/2000/svg"
 width="500.000000pt" height="500.000000pt" viewBox="0 0 500.000000 500.000000"
 preserveAspectRatio="xMidYMid meet">

<g transform="translate(0.000000,500.000000) scale(0.100000,-0.100000)"
fill="#000000" stroke="none">
<path d="M594 2555 c-48 -48 4 -114 70 -89 23 9 20 26 -4 19 -32 -10 -60 4
-60 29 0 32 22 48 57 41 27 -6 27 -6 9 9 -27 22 -43 20 -72 -9z"/>
<path d="M844 2525 c-24 -56 -25 -80 -2 -57 15 15 65 16 70 1 2 -7 9 -10 15
-8 14 5 -29 111 -46 117 -6 2 -23 -22 -37 -53z m46 -6 c0 -5 -7 -9 -15 -9 -9
0 -12 6 -9 15 6 15 24 11 24 -6z"/>
<path d="M1090 2520 c0 -33 4 -60 10 -60 6 0 10 12 10 26 0 22 4 25 28 22 19
-2 28 -9 30 -25 7 -47 22 -21 22 37 0 33 -4 60 -10 60 -5 0 -10 -11 -10 -25 0
-21 -5 -25 -30 -25 -25 0 -30 4 -30 25 0 14 -4 25 -10 25 -6 0 -10 -27 -10
-60z"/>
<path d="M1363 2525 c-15 -30 -23 -58 -19 -62 5 -4 11 -2 13 5 5 14 73 17 73
2 0 -5 6 -10 14 -10 11 0 9 14 -11 60 -15 33 -30 60 -35 60 -4 0 -20 -25 -35
-55z m47 -7 c0 -5 -7 -8 -15 -8 -17 0 -18 2 -9 25 5 13 8 14 15 3 5 -7 9 -16
9 -20z"/>
<path d="M1590 2575 c0 -2 9 -19 20 -37 11 -18 20 -43 20 -55 0 -13 5 -23 10
-23 6 0 10 8 10 18 0 9 9 32 20 50 11 18 20 37 20 42 0 20 -17 9 -29 -17 l-13
-28 -22 28 c-20 24 -36 35 -36 22z"/>
<path d="M1854 2525 c-24 -56 -25 -80 -2 -57 15 15 65 16 70 1 2 -7 9 -10 15
-8 14 5 -29 111 -46 117 -6 2 -23 -22 -37 -53z m46 -6 c0 -5 -7 -9 -15 -9 -9
0 -12 6 -9 15 6 15 24 11 24 -6z"/>
<path d="M2270 2520 c0 -58 15 -84 22 -37 2 16 11 23 31 25 23 3 27 0 27 -22
0 -14 5 -26 10 -26 6 0 10 27 10 60 0 33 -4 60 -10 60 -5 0 -10 -11 -10 -25 0
-21 -5 -25 -30 -25 -25 0 -30 4 -30 25 0 14 -4 25 -10 25 -6 0 -10 -27 -10
-60z"/>
<path d="M2546 2523 c-26 -55 -27 -78 -4 -55 7 7 24 12 38 12 14 0 31 -5 38
-12 23 -23 22 1 -2 56 -14 31 -29 56 -35 56 -5 0 -21 -25 -35 -57z m48 2 c3
-9 0 -15 -9 -15 -8 0 -15 7 -15 15 0 8 4 15 9 15 5 0 11 -7 15 -15z"/>
<path d="M2795 2566 c-23 -17 -14 -43 20 -56 36 -14 32 -34 -6 -26 -22 4 -29
2 -27 -7 6 -17 56 -21 74 -6 22 18 17 37 -16 54 -30 15 -34 40 -5 29 21 -8 41
6 24 17 -20 13 -43 11 -64 -5z"/>
<path d="M3020 2520 c0 -33 4 -60 10 -60 6 0 10 27 10 60 0 33 -4 60 -10 60
-6 0 -10 -27 -10 -60z"/>
<path d="M3206 2573 c-3 -3 -6 -30 -6 -60 l0 -53 40 0 c22 0 40 5 40 10 0 6
-11 10 -25 10 -23 0 -25 4 -25 44 0 43 -10 63 -24 49z"/>
<path d="M3600 2520 l0 -60 39 0 c44 0 68 20 53 46 -5 9 -7 26 -4 36 6 25 -13
38 -55 38 l-33 0 0 -60z m68 23 c2 -8 -6 -13 -22 -13 -25 0 -33 10 -19 24 10
10 36 3 41 -11z m2 -48 c0 -9 -9 -15 -25 -15 -16 0 -25 6 -25 15 0 9 9 15 25
15 16 0 25 -6 25 -15z"/>
<path d="M3850 2532 c0 -54 12 -72 50 -72 14 0 31 5 38 12 14 14 16 108 2 108
-5 0 -10 -17 -10 -37 0 -47 -12 -66 -36 -61 -15 2 -20 14 -22 51 -4 62 -22 61
-22 -1z"/>
<path d="M4110 2520 c0 -33 4 -60 10 -60 6 0 10 15 10 33 l1 32 15 -27 c19
-36 27 -35 47 5 l16 32 0 -37 c1 -21 6 -38 11 -38 6 0 10 27 10 61 0 68 -14
76 -40 21 -8 -17 -18 -32 -21 -32 -3 0 -13 16 -22 35 -25 52 -37 43 -37 -25z"/>
<path d="M4396 2573 c-3 -3 -6 -30 -6 -60 0 -40 4 -53 15 -53 11 0 15 13 15
54 0 51 -9 74 -24 59z"/>
</g>
</svg>
