<?xml version="1.0" standalone="no"?>
<!DOCTYPE svg PUBLIC "-//W3C//DTD SVG 20010904//EN"
 "http://www.w3.org/TR/2001/REC-SVG-20010904/DTD/svg10.dtd">
<svg version="1.0" xmlns="http://www.w3.org/2000/svg"
 width="500.000000pt" height="500.000000pt" viewBox="0 0 500.000000 500.000000"
 preserveAspectRatio="xMidYMid meet">

<g transform="translate(0.000000,500.000000) scale(0.100000,-0.100000)"
fill="#000000" stroke="none">
<path d="M4178 2943 c6 -2 18 -2 25 0 6 3 1 5 -13 5 -14 0 -19 -2 -12 -5z"/>
<path d="M4052 2919 c-30 -12 -73 -40 -101 -67 -39 -38 -40 -40 -6 -10 52 45
89 64 157 82 30 8 42 15 28 15 -14 0 -49 -9 -78 -20z"/>
<path d="M4280 2925 c144 -41 222 -131 251 -289 8 -44 9 -75 1 -111 -7 -35 -7
-55 0 -70 10 -17 9 -18 -4 -7 -13 10 -17 10 -22 -3 -3 -9 -2 -13 4 -10 6 3 7
-1 4 -9 -3 -9 -10 -14 -14 -11 -4 3 -15 -6 -24 -20 -9 -14 -13 -25 -9 -25 4 0
-6 -14 -22 -30 -16 -17 -35 -28 -42 -26 -7 3 -15 0 -19 -6 -5 -7 -2 -8 7 -4 8
4 5 0 -6 -8 -11 -9 -25 -14 -33 -11 -7 2 -10 0 -7 -5 3 -5 -20 -17 -52 -26
-78 -23 -169 -14 -248 25 -71 35 -113 76 -154 151 -33 60 -40 61 -16 3 19 -44
12 -56 -9 -16 -8 15 -15 23 -16 18 0 -23 74 -119 116 -148 24 -17 44 -35 44
-40 0 -4 5 -5 10 -2 6 3 10 2 10 -3 0 -12 80 -34 147 -39 58 -5 152 16 214 48
49 24 134 110 142 142 3 12 16 49 27 82 32 88 25 200 -18 287 -17 35 -46 77
-64 93 -30 28 -31 28 -9 3 36 -41 20 -43 -18 -4 -19 20 -39 32 -48 29 -8 -3
-13 0 -11 8 2 9 -4 13 -16 11 -10 -2 -15 1 -11 7 4 7 0 8 -11 4 -10 -3 -15 -2
-12 3 4 5 -4 10 -15 10 -12 1 -40 5 -62 8 -30 5 -26 3 15 -9z m212 -110 c3 3
16 -10 28 -30 17 -28 20 -39 11 -48 -9 -9 -11 -8 -5 7 5 13 4 17 -4 12 -8 -5
-10 -2 -6 9 4 9 3 15 -2 13 -5 -2 -31 22 -59 52 -40 45 -42 48 -9 17 22 -20
43 -35 46 -32z m50 -107 c-7 -7 -12 -8 -12 -2 0 6 3 14 7 17 3 4 9 5 12 2 2
-3 -1 -11 -7 -17z m15 -30 c-3 -8 -6 -5 -6 6 -1 11 2 17 5 13 3 -3 4 -12 1
-19z m10 -85 c-2 -16 -4 -5 -4 22 0 28 2 40 4 28 2 -13 2 -35 0 -50z m0 -55
c-3 -8 -6 -5 -6 6 -1 11 2 17 5 13 3 -3 4 -12 1 -19z m-23 -64 c3 -8 2 -12 -4
-9 -6 3 -10 10 -10 16 0 14 7 11 14 -7z m-609 -131 l38 -48 -41 40 c-36 33
-51 55 -39 55 1 0 20 -21 42 -47z"/>
<path d="M3645 2683 c-295 -23 -703 -120 -1092 -261 -106 -38 -180 -70 -176
-75 4 -6 0 -8 -10 -4 -10 3 -17 3 -17 -1 0 -11 -78 -13 -85 -2 -3 5 -11 10
-17 10 -6 0 -3 -9 8 -21 12 -13 25 -18 39 -14 11 3 31 8 45 10 14 2 58 18 99
34 116 49 430 148 616 197 476 122 816 146 1009 68 72 -28 133 -75 147 -112 7
-18 13 -22 21 -14 15 15 -22 63 -78 101 -107 70 -294 101 -509 84z"/>
<path d="M3851 2504 c0 -11 3 -14 6 -6 3 7 2 16 -1 19 -3 4 -6 -2 -5 -13z"/>
<path d="M4429 2343 l-24 -28 28 24 c15 14 27 26 27 28 0 8 -8 1 -31 -24z"/>
</g>
</svg>
