<?xml version="1.0" standalone="no"?>
<!DOCTYPE svg PUBLIC "-//W3C//DTD SVG 20010904//EN"
 "http://www.w3.org/TR/2001/REC-SVG-20010904/DTD/svg10.dtd">
<svg version="1.0" xmlns="http://www.w3.org/2000/svg"
 width="500.000000pt" height="500.000000pt" viewBox="0 0 500.000000 500.000000"
 preserveAspectRatio="xMidYMid meet">

<g transform="translate(0.000000,500.000000) scale(0.100000,-0.100000)"
fill="#000000" stroke="none">
<path d="M787 3370 c3 -10 11 -25 19 -31 21 -17 17 -44 -8 -62 l-23 -16 23 0
c13 -1 21 3 17 8 -3 5 -1 12 5 16 15 9 12 36 -7 57 -23 26 -4 22 39 -7 35 -24
43 -25 135 -20 124 6 260 -8 280 -28 14 -13 13 -16 -8 -27 -17 -10 -24 -10
-27 -1 -6 17 -22 13 -23 -6 -1 -12 -4 -10 -9 7 -7 23 -8 23 -9 3 -1 -16 -9
-23 -32 -28 -41 -9 -133 3 -189 25 -25 9 -54 21 -65 24 -20 7 -20 7 0 -5 19
-12 19 -12 0 -20 -16 -6 -14 -8 12 -8 17 -1 68 -10 113 -20 45 -11 88 -17 96
-14 22 8 17 -5 -7 -18 -17 -9 -23 -8 -30 2 -7 11 -9 10 -9 -3 0 -24 17 -22 65
7 22 14 47 25 55 25 24 0 100 32 100 42 0 5 -14 17 -31 26 -17 9 -44 28 -60
40 -17 14 -27 18 -24 10 8 -20 -16 -19 -104 3 -84 21 -111 24 -111 9 0 -5 24
-11 53 -11 l52 -1 -55 -9 c-111 -17 -134 -14 -183 19 -54 38 -57 38 -50 12z"/>
<path d="M1150 3361 c0 -6 4 -12 8 -15 5 -3 9 1 9 9 0 8 -4 15 -9 15 -4 0 -8
-4 -8 -9z"/>
<path d="M970 3290 c14 -4 36 -8 50 -8 22 0 22 1 -5 8 -16 4 -39 8 -50 8 -16
0 -15 -2 5 -8z"/>
<path d="M845 3280 c-3 -5 -1 -10 4 -10 6 0 11 5 11 10 0 6 -2 10 -4 10 -3 0
-8 -4 -11 -10z"/>
<path d="M1100 3280 l-55 -7 57 -1 c31 -1 60 3 63 8 3 6 3 9 -2 8 -4 -1 -33
-4 -63 -8z"/>
<path d="M3177 3223 c-15 -15 -22 -16 -49 -5 -38 14 -47 8 -30 -19 11 -17 9
-21 -15 -30 -16 -6 -55 -22 -88 -35 -33 -12 -54 -23 -47 -24 8 0 48 14 90 31
53 21 88 29 112 26 19 -2 62 2 95 11 57 14 162 13 250 -3 24 -4 26 -3 10 4
-17 8 -14 10 16 10 53 1 115 -24 176 -70 45 -34 52 -43 42 -55 -17 -20 -60
-42 -106 -54 l-38 -10 43 5 c57 7 111 30 118 50 9 22 -59 92 -114 117 -23 10
-61 22 -85 26 -26 5 -42 13 -42 21 0 8 -6 16 -12 19 -7 2 -13 -3 -13 -12 0 -9
-6 -16 -12 -17 -30 -3 -77 4 -128 17 -76 20 -151 18 -173 -3z m142 1 c38 -8
41 -24 4 -24 -16 0 -54 -7 -87 -14 -54 -13 -62 -12 -100 5 l-41 18 40 -5 c30
-4 44 -2 54 10 14 17 73 21 130 10z"/>
<path d="M2722 3182 c-9 -6 -1 -14 27 -26 21 -10 54 -33 71 -51 l33 -34 -22
-35 c-12 -19 -34 -39 -49 -45 l-27 -9 25 -1 c43 -1 103 20 148 52 39 28 51 32
123 33 79 2 91 -3 65 -25 -11 -9 -17 -8 -28 2 -10 10 -20 12 -38 4 -24 -9 -24
-10 14 -19 34 -7 43 -5 62 13 29 27 69 22 165 -18 55 -24 64 -31 56 -44 -15
-24 -1 -49 27 -49 14 0 41 14 59 30 19 17 45 31 58 31 17 1 19 3 7 6 -10 2
-18 8 -18 11 0 4 -29 6 -64 4 -55 -2 -76 2 -138 29 -125 54 -295 53 -364 -2
-41 -32 -66 -39 -41 -11 21 23 21 31 0 48 -17 13 -17 14 0 8 31 -11 18 4 -25
30 -50 30 -47 32 12 11 24 -8 45 -13 47 -11 2 2 -17 11 -44 20 -26 9 -59 23
-73 32 -25 15 -25 15 10 8 19 -3 55 -15 79 -25 33 -15 41 -15 31 -4 -26 31
-157 56 -188 37z m134 -90 c-4 -3 -14 2 -24 12 -16 18 -16 18 6 6 13 -6 21
-14 18 -18z m24 -40 c0 -5 -9 -17 -20 -27 -20 -18 -25 -11 -14 19 6 17 34 23
34 8z m511 -71 c-20 -15 -21 -18 -5 -18 11 0 26 5 34 11 9 6 5 1 -8 -11 -26
-26 -62 -30 -62 -9 0 8 10 22 22 30 31 22 48 20 19 -3z"/>
<path d="M3070 3111 c0 -7 21 -11 56 -11 31 0 84 -7 118 -16 68 -18 169 -15
189 5 10 10 6 10 -16 2 -39 -15 -109 -14 -176 3 -85 22 -171 30 -171 17z"/>
<path d="M3554 3085 c-24 -57 -14 -109 17 -90 6 5 4 12 -8 20 -17 13 -17 16
-2 59 19 54 15 62 -7 11z"/>
<path d="M3604 3089 c-7 -12 15 -41 27 -33 14 8 11 31 -6 37 -8 4 -17 2 -21
-4z"/>
<path d="M1748 3047 c33 -34 40 -64 21 -99 -19 -35 -2 -30 19 6 l20 34 -36 43
c-27 31 -31 41 -17 35 11 -4 32 -13 47 -18 16 -5 26 -14 23 -18 -6 -10 13 -23
39 -27 32 -5 -44 56 -84 67 -60 17 -66 12 -32 -23z"/>
<path d="M1973 3044 c-7 -3 -10 -11 -7 -19 4 -8 -3 -15 -18 -19 -13 -3 7 -3
44 -1 127 8 345 -30 355 -62 5 -14 -72 -47 -92 -39 -9 3 -14 2 -11 -3 3 -5 -5
-11 -19 -13 -14 -3 -25 -1 -25 4 0 5 -9 4 -19 -2 -31 -16 -49 -11 -21 6 16 10
18 13 5 8 -46 -16 -74 -14 -135 9 -100 38 -108 41 -90 28 12 -8 7 -11 -23 -11
-37 0 -45 19 -9 21 10 0 6 5 -10 10 -21 8 -36 6 -70 -10 -24 -12 -34 -18 -23
-15 52 17 65 17 59 0 -5 -14 3 -16 53 -16 41 0 85 -9 141 -30 81 -30 82 -30
156 -15 76 14 129 35 142 57 11 18 -30 45 -88 58 -29 7 -69 21 -88 32 -25 15
-57 21 -115 24 -44 1 -85 0 -92 -2z m102 -13 c37 -8 35 -9 -27 -10 -40 -1 -68
3 -68 9 0 12 39 12 95 1z"/>
<path d="M2008 2963 c6 -2 18 -2 25 0 6 3 1 5 -13 5 -14 0 -19 -2 -12 -5z"/>
<path d="M2088 2953 c17 -2 47 -2 65 0 17 2 3 4 -33 4 -36 0 -50 -2 -32 -4z"/>
<path d="M2231 2934 c0 -11 3 -14 6 -6 3 7 2 16 -1 19 -3 4 -6 -2 -5 -13z"/>
<path d="M2275 2930 c4 -6 11 -8 16 -5 14 9 11 15 -7 15 -8 0 -12 -5 -9 -10z"/>
<path d="M4100 2497 c0 -2 26 -21 58 -42 31 -21 49 -29 40 -18 -17 18 -98 69
-98 60z"/>
<path d="M4185 2389 c-12 -13 -14 -19 -5 -14 11 6 12 5 4 -4 -6 -6 -33 -20
-60 -31 -59 -23 -46 -26 19 -4 51 17 70 35 65 60 -3 14 -6 13 -23 -7z"/>
<path d="M3685 2320 c17 -4 52 -8 80 -9 38 -1 46 -4 37 -13 -7 -7 -12 -20 -12
-30 0 -25 36 -23 87 6 26 15 66 26 112 31 39 4 71 10 71 14 0 3 -91 7 -203 7
-111 1 -188 -2 -172 -6z m210 -19 c-3 -6 -15 -16 -27 -22 -15 -8 -19 -8 -14 0
5 8 0 8 -18 -1 -15 -6 -29 -8 -32 -5 -13 13 19 36 54 39 43 4 46 3 37 -11z"/>
<path d="M1440 2010 c0 -5 8 -14 18 -19 13 -8 -1 -10 -56 -11 -40 0 -80 -4
-90 -9 -51 -26 -96 -41 -141 -47 -55 -7 -85 -29 -61 -44 11 -7 6 -13 -23 -25
-20 -8 -37 -18 -37 -20 0 -3 16 1 35 10 20 8 50 14 68 14 18 -1 64 11 103 25
39 14 117 33 173 43 91 16 100 19 84 31 -16 13 -11 14 42 9 33 -4 85 -15 115
-26 105 -37 98 -35 76 -17 -11 9 -27 16 -35 16 -9 0 -28 6 -43 14 -14 8 -50
19 -78 25 -28 6 -64 18 -80 26 -33 17 -70 20 -70 5z m60 -10 c13 -9 13 -10 0
-10 -8 0 -22 5 -30 10 -13 9 -13 10 0 10 8 0 22 -5 30 -10z m-30 -39 c23 -7
23 -8 5 -14 -11 -3 -42 -9 -70 -12 -27 -4 -92 -21 -143 -37 -76 -25 -97 -29
-117 -20 -39 18 -29 29 32 37 57 7 64 9 118 37 31 17 131 22 175 9z"/>
<path d="M1630 1855 l-15 -60 -55 -14 c-45 -11 -95 -12 -285 -3 -213 11 -231
10 -246 -6 -10 -9 -20 -28 -23 -42 -7 -24 -6 -24 9 2 18 32 44 48 79 48 26 0
35 -14 16 -25 -24 -15 -6 -21 58 -20 37 0 77 6 90 13 15 9 66 12 161 11 77 0
146 2 153 6 7 3 4 0 -6 -9 -10 -8 -22 -13 -27 -11 -4 3 -6 -3 -5 -12 3 -19
-10 -33 -33 -33 -11 0 -9 5 5 22 l19 21 -27 -18 c-36 -23 -35 -35 3 -35 30 0
66 27 99 76 8 12 34 31 58 43 45 23 54 32 23 24 -10 -3 -22 0 -26 7 -4 7 -1
10 10 8 19 -3 44 26 32 38 -4 4 -16 -1 -26 -10 -19 -17 -20 -17 -23 11 -3 22
-6 16 -18 -32z m-380 -100 c-31 -17 -44 -19 -34 -3 7 11 -53 6 -93 -9 -16 -6
-16 -5 -4 10 10 13 30 17 85 17 67 -1 69 -2 46 -15z m315 -25 c-3 -5 -12 -10
-18 -10 -7 0 -6 4 3 10 19 12 23 12 15 0z"/>
<path d="M1525 1869 c-33 -10 -146 -24 -273 -34 -46 -4 -81 -9 -78 -12 6 -7
249 15 316 28 30 6 62 15 70 20 19 11 4 10 -35 -2z"/>
<path d="M1008 1823 c6 -2 18 -2 25 0 6 3 1 5 -13 5 -14 0 -19 -2 -12 -5z"/>
<path d="M930 1811 c-46 -14 -87 -40 -114 -71 -14 -18 -24 -35 -21 -39 2 -4
26 -3 53 2 66 14 111 -3 119 -45 l6 -30 13 32 c16 37 18 53 4 28 -9 -14 -14
-13 -41 15 l-31 30 24 20 c12 10 16 15 8 11 -8 -4 -25 -16 -37 -27 -29 -26
-30 -11 -1 20 32 34 16 28 -32 -12 -51 -42 -87 -49 -49 -9 28 30 67 52 124 70
22 7 31 13 20 12 -11 0 -31 -3 -45 -7z"/>
</g>
</svg>
